<mxfile host="app.diagrams.net" modified="2023-06-09T09:13:41.208Z" agent="Mozilla/5.0 (Windows NT 10.0; Win64; x64) AppleWebKit/537.36 (KHTML, like Gecko) Chrome/114.0.0.0 Safari/537.36" etag="-5Q6dDr7rHHmhqhVQYAX" version="21.3.8" type="device">
  <diagram id="C5RBs43oDa-KdzZeNtuy" name="Page-1">
    <mxGraphModel dx="1050" dy="541" grid="1" gridSize="10" guides="1" tooltips="1" connect="1" arrows="1" fold="1" page="1" pageScale="1" pageWidth="827" pageHeight="1169" math="0" shadow="0">
      <root>
        <mxCell id="WIyWlLk6GJQsqaUBKTNV-0" />
        <mxCell id="WIyWlLk6GJQsqaUBKTNV-1" parent="WIyWlLk6GJQsqaUBKTNV-0" />
        <mxCell id="WIyWlLk6GJQsqaUBKTNV-2" value="" style="rounded=0;html=1;jettySize=auto;orthogonalLoop=1;fontSize=11;endArrow=block;endFill=0;endSize=8;strokeWidth=1;shadow=0;labelBackgroundColor=none;edgeStyle=orthogonalEdgeStyle;entryX=0.5;entryY=0;entryDx=0;entryDy=0;" parent="WIyWlLk6GJQsqaUBKTNV-1" source="WIyWlLk6GJQsqaUBKTNV-3" target="xcaQM8RAZF8bo-0RPj1s-0" edge="1">
          <mxGeometry relative="1" as="geometry">
            <mxPoint x="220" y="170" as="targetPoint" />
          </mxGeometry>
        </mxCell>
        <mxCell id="WIyWlLk6GJQsqaUBKTNV-3" value="建立 Work Item" style="rounded=1;whiteSpace=wrap;html=1;fontSize=12;glass=0;strokeWidth=1;shadow=0;" parent="WIyWlLk6GJQsqaUBKTNV-1" vertex="1">
          <mxGeometry x="160" y="80" width="280" height="40" as="geometry" />
        </mxCell>
        <mxCell id="WIyWlLk6GJQsqaUBKTNV-10" value="code review" style="rhombus;whiteSpace=wrap;html=1;shadow=0;fontFamily=Helvetica;fontSize=12;align=center;strokeWidth=1;spacing=6;spacingTop=-4;" parent="WIyWlLk6GJQsqaUBKTNV-1" vertex="1">
          <mxGeometry x="640" y="420" width="100" height="80" as="geometry" />
        </mxCell>
        <mxCell id="xcaQM8RAZF8bo-0RPj1s-0" value="git pull 取得程式碼" style="rounded=1;whiteSpace=wrap;html=1;fontSize=12;glass=0;strokeWidth=1;shadow=0;" vertex="1" parent="WIyWlLk6GJQsqaUBKTNV-1">
          <mxGeometry x="160" y="170" width="280" height="40" as="geometry" />
        </mxCell>
        <mxCell id="xcaQM8RAZF8bo-0RPj1s-4" value="依照 Work Item 建立 work branch" style="rounded=1;whiteSpace=wrap;html=1;fontSize=12;glass=0;strokeWidth=1;shadow=0;" vertex="1" parent="WIyWlLk6GJQsqaUBKTNV-1">
          <mxGeometry x="160" y="260" width="280" height="40" as="geometry" />
        </mxCell>
        <mxCell id="xcaQM8RAZF8bo-0RPj1s-5" value="在 work branch 進行 programming" style="rounded=1;whiteSpace=wrap;html=1;fontSize=12;glass=0;strokeWidth=1;shadow=0;" vertex="1" parent="WIyWlLk6GJQsqaUBKTNV-1">
          <mxGeometry x="160" y="350" width="280" height="40" as="geometry" />
        </mxCell>
        <mxCell id="xcaQM8RAZF8bo-0RPj1s-6" value="當 coding 完成，push 並且發送 pull request" style="rounded=1;whiteSpace=wrap;html=1;fontSize=12;glass=0;strokeWidth=1;shadow=0;" vertex="1" parent="WIyWlLk6GJQsqaUBKTNV-1">
          <mxGeometry x="160" y="440" width="280" height="40" as="geometry" />
        </mxCell>
        <mxCell id="xcaQM8RAZF8bo-0RPj1s-9" value="" style="endArrow=classic;html=1;rounded=0;exitX=0.5;exitY=1;exitDx=0;exitDy=0;" edge="1" parent="WIyWlLk6GJQsqaUBKTNV-1" source="xcaQM8RAZF8bo-0RPj1s-0">
          <mxGeometry width="50" height="50" relative="1" as="geometry">
            <mxPoint x="300" y="220" as="sourcePoint" />
            <mxPoint x="299.5" y="260" as="targetPoint" />
          </mxGeometry>
        </mxCell>
        <mxCell id="xcaQM8RAZF8bo-0RPj1s-12" value="" style="endArrow=classic;html=1;rounded=0;" edge="1" parent="WIyWlLk6GJQsqaUBKTNV-1">
          <mxGeometry width="50" height="50" relative="1" as="geometry">
            <mxPoint x="300" y="300" as="sourcePoint" />
            <mxPoint x="299.5" y="350" as="targetPoint" />
          </mxGeometry>
        </mxCell>
        <mxCell id="xcaQM8RAZF8bo-0RPj1s-14" value="" style="endArrow=classic;html=1;rounded=0;" edge="1" parent="WIyWlLk6GJQsqaUBKTNV-1">
          <mxGeometry width="50" height="50" relative="1" as="geometry">
            <mxPoint x="300" y="390" as="sourcePoint" />
            <mxPoint x="299.5" y="440" as="targetPoint" />
          </mxGeometry>
        </mxCell>
        <mxCell id="xcaQM8RAZF8bo-0RPj1s-15" value="" style="endArrow=classic;html=1;rounded=0;" edge="1" parent="WIyWlLk6GJQsqaUBKTNV-1">
          <mxGeometry width="50" height="50" relative="1" as="geometry">
            <mxPoint x="440" y="459.5" as="sourcePoint" />
            <mxPoint x="640" y="459.5" as="targetPoint" />
          </mxGeometry>
        </mxCell>
        <mxCell id="xcaQM8RAZF8bo-0RPj1s-16" value="" style="endArrow=classic;html=1;rounded=0;entryX=1;entryY=0.5;entryDx=0;entryDy=0;" edge="1" parent="WIyWlLk6GJQsqaUBKTNV-1" target="xcaQM8RAZF8bo-0RPj1s-5">
          <mxGeometry width="50" height="50" relative="1" as="geometry">
            <mxPoint x="689.5" y="420" as="sourcePoint" />
            <mxPoint x="690" y="360" as="targetPoint" />
            <Array as="points">
              <mxPoint x="690" y="370" />
            </Array>
          </mxGeometry>
        </mxCell>
        <mxCell id="xcaQM8RAZF8bo-0RPj1s-18" value="Not approved" style="text;html=1;align=center;verticalAlign=middle;resizable=0;points=[];autosize=1;strokeColor=none;fillColor=none;" vertex="1" parent="WIyWlLk6GJQsqaUBKTNV-1">
          <mxGeometry x="515" y="370" width="100" height="30" as="geometry" />
        </mxCell>
        <mxCell id="xcaQM8RAZF8bo-0RPj1s-19" value="Approved" style="text;html=1;align=center;verticalAlign=middle;resizable=0;points=[];autosize=1;strokeColor=none;fillColor=none;" vertex="1" parent="WIyWlLk6GJQsqaUBKTNV-1">
          <mxGeometry x="746" y="460" width="70" height="30" as="geometry" />
        </mxCell>
        <mxCell id="xcaQM8RAZF8bo-0RPj1s-20" value="完成 merge 到 develop branch" style="rounded=1;whiteSpace=wrap;html=1;fontSize=12;glass=0;strokeWidth=1;shadow=0;" vertex="1" parent="WIyWlLk6GJQsqaUBKTNV-1">
          <mxGeometry x="840" y="440" width="280" height="40" as="geometry" />
        </mxCell>
        <mxCell id="xcaQM8RAZF8bo-0RPj1s-21" value="" style="endArrow=classic;html=1;rounded=0;" edge="1" parent="WIyWlLk6GJQsqaUBKTNV-1">
          <mxGeometry width="50" height="50" relative="1" as="geometry">
            <mxPoint x="740" y="459.5" as="sourcePoint" />
            <mxPoint x="840" y="459.5" as="targetPoint" />
          </mxGeometry>
        </mxCell>
        <mxCell id="xcaQM8RAZF8bo-0RPj1s-22" value="完成 merge 到 develop branch" style="rounded=1;whiteSpace=wrap;html=1;fontSize=12;glass=0;strokeWidth=1;shadow=0;" vertex="1" parent="WIyWlLk6GJQsqaUBKTNV-1">
          <mxGeometry x="840" y="320" width="280" height="40" as="geometry" />
        </mxCell>
        <mxCell id="xcaQM8RAZF8bo-0RPj1s-23" value="" style="endArrow=classic;html=1;rounded=0;" edge="1" parent="WIyWlLk6GJQsqaUBKTNV-1">
          <mxGeometry width="50" height="50" relative="1" as="geometry">
            <mxPoint x="979.5" y="440" as="sourcePoint" />
            <mxPoint x="979.5" y="360" as="targetPoint" />
          </mxGeometry>
        </mxCell>
        <mxCell id="xcaQM8RAZF8bo-0RPj1s-24" value="對測試環境進行佈署與測試" style="rounded=1;whiteSpace=wrap;html=1;fontSize=12;glass=0;strokeWidth=1;shadow=0;" vertex="1" parent="WIyWlLk6GJQsqaUBKTNV-1">
          <mxGeometry x="840" y="230" width="280" height="40" as="geometry" />
        </mxCell>
        <mxCell id="xcaQM8RAZF8bo-0RPj1s-25" value="" style="endArrow=classic;html=1;rounded=0;" edge="1" parent="WIyWlLk6GJQsqaUBKTNV-1">
          <mxGeometry width="50" height="50" relative="1" as="geometry">
            <mxPoint x="979.5" y="320" as="sourcePoint" />
            <mxPoint x="979.5" y="270" as="targetPoint" />
          </mxGeometry>
        </mxCell>
        <mxCell id="xcaQM8RAZF8bo-0RPj1s-26" value="test" style="rhombus;whiteSpace=wrap;html=1;shadow=0;fontFamily=Helvetica;fontSize=12;align=center;strokeWidth=1;spacing=6;spacingTop=-4;" vertex="1" parent="WIyWlLk6GJQsqaUBKTNV-1">
          <mxGeometry x="945" y="70" width="70" height="60" as="geometry" />
        </mxCell>
        <mxCell id="xcaQM8RAZF8bo-0RPj1s-27" value="完成 Work Item" style="rounded=1;whiteSpace=wrap;html=1;fontSize=12;glass=0;strokeWidth=1;shadow=0;" vertex="1" parent="WIyWlLk6GJQsqaUBKTNV-1">
          <mxGeometry x="547" y="80" width="280" height="40" as="geometry" />
        </mxCell>
        <mxCell id="xcaQM8RAZF8bo-0RPj1s-28" value="" style="endArrow=classic;html=1;rounded=0;exitX=0.5;exitY=0;exitDx=0;exitDy=0;entryX=0.5;entryY=1;entryDx=0;entryDy=0;" edge="1" parent="WIyWlLk6GJQsqaUBKTNV-1" source="xcaQM8RAZF8bo-0RPj1s-24" target="xcaQM8RAZF8bo-0RPj1s-26">
          <mxGeometry width="50" height="50" relative="1" as="geometry">
            <mxPoint x="979.5" y="190" as="sourcePoint" />
            <mxPoint x="979.5" y="140" as="targetPoint" />
          </mxGeometry>
        </mxCell>
        <mxCell id="xcaQM8RAZF8bo-0RPj1s-29" value="" style="endArrow=classic;html=1;rounded=0;exitX=0;exitY=0.5;exitDx=0;exitDy=0;entryX=1;entryY=0.5;entryDx=0;entryDy=0;" edge="1" parent="WIyWlLk6GJQsqaUBKTNV-1" source="xcaQM8RAZF8bo-0RPj1s-26" target="xcaQM8RAZF8bo-0RPj1s-27">
          <mxGeometry width="50" height="50" relative="1" as="geometry">
            <mxPoint x="940" y="109.5" as="sourcePoint" />
            <mxPoint x="827" y="109.5" as="targetPoint" />
          </mxGeometry>
        </mxCell>
        <mxCell id="xcaQM8RAZF8bo-0RPj1s-31" value="Pass" style="text;html=1;align=center;verticalAlign=middle;resizable=0;points=[];autosize=1;strokeColor=none;fillColor=none;" vertex="1" parent="WIyWlLk6GJQsqaUBKTNV-1">
          <mxGeometry x="870" y="70" width="50" height="30" as="geometry" />
        </mxCell>
        <mxCell id="xcaQM8RAZF8bo-0RPj1s-32" value="" style="endArrow=classic;html=1;rounded=0;exitX=0;exitY=0.5;exitDx=0;exitDy=0;" edge="1" parent="WIyWlLk6GJQsqaUBKTNV-1" source="xcaQM8RAZF8bo-0RPj1s-26">
          <mxGeometry width="50" height="50" relative="1" as="geometry">
            <mxPoint x="630" y="290" as="sourcePoint" />
            <mxPoint x="440" y="370" as="targetPoint" />
          </mxGeometry>
        </mxCell>
        <mxCell id="xcaQM8RAZF8bo-0RPj1s-33" value="Not pass" style="text;html=1;align=center;verticalAlign=middle;resizable=0;points=[];autosize=1;strokeColor=none;fillColor=none;" vertex="1" parent="WIyWlLk6GJQsqaUBKTNV-1">
          <mxGeometry x="660" y="250" width="70" height="30" as="geometry" />
        </mxCell>
      </root>
    </mxGraphModel>
  </diagram>
</mxfile>
